<?xml version="1.0" encoding="UTF-8" standalone="no"?>
<svg
   width="128"
   height="128"
   viewBox="0 0 33.866666 33.866668"
   version="1.1"
   id="svg1711"
   inkscape:version="1.2 (dc2aedaf03, 2022-05-15)"
   sodipodi:docname="zsnes.svg"
   xmlns:inkscape="http://www.inkscape.org/namespaces/inkscape"
   xmlns:sodipodi="http://sodipodi.sourceforge.net/DTD/sodipodi-0.dtd"
   xmlns:xlink="http://www.w3.org/1999/xlink"
   xmlns="http://www.w3.org/2000/svg"
   xmlns:svg="http://www.w3.org/2000/svg"
   xmlns:rdf="http://www.w3.org/1999/02/22-rdf-syntax-ns#"
   xmlns:cc="http://creativecommons.org/ns#"
   xmlns:dc="http://purl.org/dc/elements/1.1/">
  <defs
     id="defs1705">
    <linearGradient
       gradientUnits="userSpaceOnUse"
       y2="4.0044317"
       x2="17.821186"
       y1="29.110353"
       x1="17.821186"
       id="linearGradient4677"
       xlink:href="#linearGradient4675"
       inkscape:collect="always"
       gradientTransform="translate(-0.07080402,3.2989843e-4)" />
    <linearGradient
       id="linearGradient4675"
       inkscape:collect="always">
      <stop
         id="stop4671"
         offset="0"
         style="stop-color:#33af4a;stop-opacity:1;" />
      <stop
         id="stop4673"
         offset="1"
         style="stop-color:#4ed742;stop-opacity:1;" />
    </linearGradient>
    <filter
       inkscape:collect="always"
       style="color-interpolation-filters:sRGB"
       id="filter1155"
       x="-0.19168481"
       y="-0.19231624"
       width="1.3833696"
       height="1.3846325">
      <feGaussianBlur
         inkscape:collect="always"
         stdDeviation="1.4301927"
         id="feGaussianBlur1157" />
    </filter>
  </defs>
  <sodipodi:namedview
     id="base"
     pagecolor="#ffffff"
     bordercolor="#666666"
     borderopacity="1.0"
     inkscape:pageopacity="0.0"
     inkscape:pageshadow="2"
     inkscape:zoom="2.8"
     inkscape:cx="88.928571"
     inkscape:cy="76.25"
     inkscape:document-units="mm"
     inkscape:current-layer="layer1"
     inkscape:document-rotation="0"
     showgrid="false"
     units="px"
     inkscape:window-width="1366"
     inkscape:window-height="703"
     inkscape:window-x="0"
     inkscape:window-y="37"
     inkscape:window-maximized="1"
     inkscape:showpageshadow="2"
     inkscape:pagecheckerboard="0"
     inkscape:deskcolor="#d1d1d1" />
  <metadata
     id="metadata1708">
    <rdf:RDF>
      <cc:Work
         rdf:about="">
        <dc:format>image/svg+xml</dc:format>
        <dc:type
           rdf:resource="http://purl.org/dc/dcmitype/StillImage" />
      </cc:Work>
    </rdf:RDF>
  </metadata>
  <g
     inkscape:label="Capa 1"
     inkscape:groupmode="layer"
     id="layer1">
    <g
       id="g1702"
       transform="matrix(0.97573206,0,0,0.97573206,-65.81919,-37.202764)"
       style="opacity:0.295">
      <rect
         style="fill:none;fill-opacity:1;stroke:#000000;stroke-width:0.1;stroke-linecap:round;stroke-linejoin:round;stroke-miterlimit:4;stroke-dasharray:none;stroke-opacity:0.02"
         id="rect1634"
         width="29.810888"
         height="29.810888"
         x="69.839508"
         y="40.709618"
         rx="6.6098609"
         ry="6.6098609" />
      <rect
         ry="6.6098609"
         rx="6.6098609"
         y="40.709618"
         x="69.839508"
         height="29.810888"
         width="29.810888"
         id="rect1638"
         style="fill:none;fill-opacity:1;stroke:#000000;stroke-width:0.2;stroke-linecap:round;stroke-linejoin:round;stroke-miterlimit:4;stroke-dasharray:none;stroke-opacity:0.02" />
      <rect
         style="fill:none;fill-opacity:1;stroke:#000000;stroke-width:0.3;stroke-linecap:round;stroke-linejoin:round;stroke-miterlimit:4;stroke-dasharray:none;stroke-opacity:0.02"
         id="rect1640"
         width="29.810888"
         height="29.810888"
         x="69.839508"
         y="40.709618"
         rx="6.6098609"
         ry="6.6098609" />
      <rect
         ry="6.6098609"
         rx="6.6098609"
         y="40.709618"
         x="69.839508"
         height="29.810888"
         width="29.810888"
         id="rect1642"
         style="fill:none;fill-opacity:1;stroke:#000000;stroke-width:0.4;stroke-linecap:round;stroke-linejoin:round;stroke-miterlimit:4;stroke-dasharray:none;stroke-opacity:0.02" />
      <rect
         style="fill:none;fill-opacity:1;stroke:#000000;stroke-width:0.5;stroke-linecap:round;stroke-linejoin:round;stroke-miterlimit:4;stroke-dasharray:none;stroke-opacity:0.02"
         id="rect1644"
         width="29.810888"
         height="29.810888"
         x="69.839508"
         y="40.709618"
         rx="6.6098609"
         ry="6.6098609" />
      <rect
         ry="6.6098609"
         rx="6.6098609"
         y="40.709618"
         x="69.839508"
         height="29.810888"
         width="29.810888"
         id="rect1646"
         style="fill:none;fill-opacity:1;stroke:#000000;stroke-width:0.6;stroke-linecap:round;stroke-linejoin:round;stroke-miterlimit:4;stroke-dasharray:none;stroke-opacity:0.02" />
      <rect
         style="fill:none;fill-opacity:1;stroke:#000000;stroke-width:0.7;stroke-linecap:round;stroke-linejoin:round;stroke-miterlimit:4;stroke-dasharray:none;stroke-opacity:0.02"
         id="rect1648"
         width="29.810888"
         height="29.810888"
         x="69.839508"
         y="40.709618"
         rx="6.6098609"
         ry="6.6098609" />
      <rect
         ry="6.6098609"
         rx="6.6098609"
         y="40.709618"
         x="69.839508"
         height="29.810888"
         width="29.810888"
         id="rect1650"
         style="fill:none;fill-opacity:1;stroke:#000000;stroke-width:0.8;stroke-linecap:round;stroke-linejoin:round;stroke-miterlimit:4;stroke-dasharray:none;stroke-opacity:0.02" />
      <rect
         style="fill:none;fill-opacity:1;stroke:#000000;stroke-width:1;stroke-linecap:round;stroke-linejoin:round;stroke-miterlimit:4;stroke-dasharray:none;stroke-opacity:0.02"
         id="rect1652"
         width="29.810888"
         height="29.810888"
         x="69.839508"
         y="40.709618"
         rx="6.6098609"
         ry="6.6098609" />
      <rect
         ry="6.6098609"
         rx="6.6098609"
         y="40.709618"
         x="69.839508"
         height="29.810888"
         width="29.810888"
         id="rect1654"
         style="fill:none;fill-opacity:1;stroke:#000000;stroke-width:1.2;stroke-linecap:round;stroke-linejoin:round;stroke-miterlimit:4;stroke-dasharray:none;stroke-opacity:0.02" />
      <rect
         style="fill:none;fill-opacity:1;stroke:#000000;stroke-width:1.4;stroke-linecap:round;stroke-linejoin:round;stroke-miterlimit:4;stroke-dasharray:none;stroke-opacity:0.02"
         id="rect1656"
         width="29.810888"
         height="29.810888"
         x="69.839508"
         y="40.709618"
         rx="6.6098609"
         ry="6.6098609" />
      <rect
         ry="6.6098609"
         rx="6.6098609"
         y="40.709618"
         x="69.839508"
         height="29.810888"
         width="29.810888"
         id="rect1658"
         style="fill:none;fill-opacity:1;stroke:#000000;stroke-width:1.6;stroke-linecap:round;stroke-linejoin:round;stroke-miterlimit:4;stroke-dasharray:none;stroke-opacity:0.02" />
      <rect
         style="fill:none;fill-opacity:1;stroke:#000000;stroke-width:1.8;stroke-linecap:round;stroke-linejoin:round;stroke-miterlimit:4;stroke-dasharray:none;stroke-opacity:0.02"
         id="rect1660"
         width="29.810888"
         height="29.810888"
         x="69.839508"
         y="40.709618"
         rx="6.6098609"
         ry="6.6098609" />
      <rect
         ry="6.6098609"
         rx="6.6098609"
         y="40.709618"
         x="69.839508"
         height="29.810888"
         width="29.810888"
         id="rect1662"
         style="fill:none;fill-opacity:1;stroke:#000000;stroke-width:2;stroke-linecap:round;stroke-linejoin:round;stroke-miterlimit:4;stroke-dasharray:none;stroke-opacity:0.02" />
      <rect
         style="fill:none;fill-opacity:1;stroke:#000000;stroke-width:2.2;stroke-linecap:round;stroke-linejoin:round;stroke-miterlimit:4;stroke-dasharray:none;stroke-opacity:0.02"
         id="rect1664"
         width="29.810888"
         height="29.810888"
         x="69.839508"
         y="40.709618"
         rx="6.6098609"
         ry="6.6098609" />
      <rect
         ry="6.6098609"
         rx="6.6098609"
         y="40.709618"
         x="69.839508"
         height="29.810888"
         width="29.810888"
         id="rect1666"
         style="fill:none;fill-opacity:1;stroke:#000000;stroke-width:2.6;stroke-linecap:round;stroke-linejoin:round;stroke-miterlimit:4;stroke-dasharray:none;stroke-opacity:0.02" />
      <rect
         style="fill:none;fill-opacity:1;stroke:#000000;stroke-width:3;stroke-linecap:round;stroke-linejoin:round;stroke-miterlimit:4;stroke-dasharray:none;stroke-opacity:0.02"
         id="rect1668"
         width="29.810888"
         height="29.810888"
         x="69.839508"
         y="40.709618"
         rx="6.6098609"
         ry="6.6098609" />
      <rect
         ry="6.6098609"
         rx="6.6098609"
         y="40.709618"
         x="69.839508"
         height="29.810888"
         width="29.810888"
         id="rect1670"
         style="fill:none;fill-opacity:1;stroke:#000000;stroke-width:3.4;stroke-linecap:round;stroke-linejoin:round;stroke-miterlimit:4;stroke-dasharray:none;stroke-opacity:0.02" />
      <rect
         style="fill:none;fill-opacity:1;stroke:#000000;stroke-width:3.8;stroke-linecap:round;stroke-linejoin:round;stroke-miterlimit:4;stroke-dasharray:none;stroke-opacity:0.02"
         id="rect1672"
         width="29.810888"
         height="29.810888"
         x="69.839508"
         y="40.709618"
         rx="6.6098609"
         ry="6.6098609" />
      <rect
         ry="6.6098609"
         rx="6.6098609"
         y="40.709618"
         x="69.839508"
         height="29.810888"
         width="29.810888"
         id="rect1674"
         style="fill:none;fill-opacity:1;stroke:#000000;stroke-width:4.2;stroke-linecap:round;stroke-linejoin:round;stroke-miterlimit:4;stroke-dasharray:none;stroke-opacity:0.02" />
      <rect
         style="fill:none;fill-opacity:1;stroke:#000000;stroke-width:4.6;stroke-linecap:round;stroke-linejoin:round;stroke-miterlimit:4;stroke-dasharray:none;stroke-opacity:0.02"
         id="rect1676"
         width="29.810888"
         height="29.810888"
         x="69.839508"
         y="40.709618"
         rx="6.6098609"
         ry="6.6098609" />
      <rect
         ry="6.6098609"
         rx="6.6098609"
         y="40.709618"
         x="69.839508"
         height="29.810888"
         width="29.810888"
         id="rect1678"
         style="fill:none;fill-opacity:1;stroke:#000000;stroke-width:5;stroke-linecap:round;stroke-linejoin:round;stroke-miterlimit:4;stroke-dasharray:none;stroke-opacity:0.02" />
    </g>
    <rect
       style="fill:url(#linearGradient4677);fill-opacity:1;stroke-width:2.68801;stroke-linecap:round;stroke-linejoin:round;stroke-miterlimit:4;stroke-dasharray:none"
       id="rect849"
       width="29.08744"
       height="29.08744"
       x="2.32546"
       y="2.5189149"
       rx="6.4494534"
       ry="6.4494534" />
    <path
       d="m 16.933078,25.171887 c 1.542447,0 3.360306,-0.194142 4.180737,-1.082283 0.610798,-0.661229 0.771478,-1.876452 0.756792,-2.691426 -0.330372,-0.462529 -1.845754,-1.710621 -4.937529,-1.710621 -3.091774,0 -4.607143,1.248112 -4.937527,1.710621 -0.01465,0.814974 0.145993,2.030197 0.756791,2.691426 0.820431,0.888151 2.638291,1.082283 4.180736,1.082283 z m -2.369761,-3.267344 c 0,0.791363 0.0748,1.500222 0.471225,1.500222 0.396381,0 0.471224,-0.689634 0.471224,-1.481 0,-0.791363 -0.01696,-1.480997 -0.447176,-1.480997 -0.430052,0 -0.495273,0.670357 -0.495273,1.461722 z m 4.739523,0 c 0,0.791363 -0.07489,1.500222 -0.471225,1.500222 -0.396387,0 -0.471224,-0.689634 -0.471224,-1.481 0,-0.791363 0.01696,-1.480997 0.447185,-1.480997 0.430063,0 0.495264,0.670357 0.495264,1.461722 z M 8.657988,17.33804 c 0,0.552106 0.059,1.031442 0.163608,1.451373 1.318839,-1.042099 2.068493,-3.99813 1.324144,-6.184467 -1.00671,1.631427 -1.487781,3.470296 -1.487781,4.732994 z m 2.88464,5.17429 c -1.533725,-0.565821 -3.5626974,-1.873748 -3.5626974,-5.173269 0,-3.299268 2.7279374,-9.3297335 8.9534024,-9.3297335 6.225262,0 8.953403,6.0304655 8.953403,9.3297335 0,3.299266 -2.028971,4.607194 -3.562698,5.173269 -0.205894,2.423814 -2.076958,3.345009 -5.390501,3.345009 -3.313544,0 -5.184488,-0.921195 -5.390501,-3.345009 z m 12.177709,-9.906976 c -0.744349,2.186286 0.0056,5.142164 1.324144,6.184466 0.104591,-0.419945 0.163627,-0.899318 0.163627,-1.451371 0,-1.262696 -0.481015,-3.101515 -1.48778,-4.732995 z M 16.933129,9.3311241 c -2.331056,0 -4.220715,1.8318329 -4.220715,4.0914979 0,2.259665 1.889659,4.091551 4.220715,4.091551 2.331056,0 4.220716,-1.831833 4.220716,-4.091551 0,-2.259665 -1.889709,-4.0914979 -4.220716,-4.0914979 z"
       color="#000000"
       color-rendering="auto"
       dominant-baseline="auto"
       fill="#ffffff"
       image-rendering="auto"
       shape-rendering="auto"
       solid-color="#000000"
       stop-color="#000000"
       style="font-variant-ligatures:normal;font-variant-position:normal;font-variant-caps:normal;font-variant-numeric:normal;font-variant-alternates:normal;font-variant-east-asian:normal;font-feature-settings:normal;font-variation-settings:normal;text-indent:0;text-decoration-line:none;text-decoration-style:solid;text-decoration-color:#000000;text-transform:none;text-orientation:mixed;white-space:normal;shape-padding:0;shape-margin:0;inline-size:0;isolation:auto;mix-blend-mode:normal;stroke-width:0.509932;fill:#000000;filter:url(#filter1155);opacity:0.3"
       id="path250-3" />
    <path
       d="m 16.933078,25.171887 c 1.542447,0 3.360306,-0.194142 4.180737,-1.082283 0.610798,-0.661229 0.771478,-1.876452 0.756792,-2.691426 -0.330372,-0.462529 -1.845754,-1.710621 -4.937529,-1.710621 -3.091774,0 -4.607143,1.248112 -4.937527,1.710621 -0.01465,0.814974 0.145993,2.030197 0.756791,2.691426 0.820431,0.888151 2.638291,1.082283 4.180736,1.082283 z m -2.369761,-3.267344 c 0,0.791363 0.0748,1.500222 0.471225,1.500222 0.396381,0 0.471224,-0.689634 0.471224,-1.481 0,-0.791363 -0.01696,-1.480997 -0.447176,-1.480997 -0.430052,0 -0.495273,0.670357 -0.495273,1.461722 z m 4.739523,0 c 0,0.791363 -0.07489,1.500222 -0.471225,1.500222 -0.396387,0 -0.471224,-0.689634 -0.471224,-1.481 0,-0.791363 0.01696,-1.480997 0.447185,-1.480997 0.430063,0 0.495264,0.670357 0.495264,1.461722 z M 8.6579874,17.33804 c 0,0.552106 0.058998,1.031442 0.1636086,1.451373 1.318839,-1.042099 2.068493,-3.99813 1.324144,-6.184467 -1.0067105,1.631427 -1.4877816,3.470296 -1.4877816,4.732994 z m 2.8846406,5.17429 c -1.533725,-0.565821 -3.5626975,-1.873748 -3.5626975,-5.173269 0,-3.299268 2.7279375,-9.3297334 8.9534025,-9.3297334 6.225262,0 8.953403,6.0304654 8.953403,9.3297334 0,3.299266 -2.028971,4.607194 -3.562698,5.173269 -0.205894,2.423814 -2.076958,3.345009 -5.390501,3.345009 -3.313544,0 -5.184488,-0.921195 -5.390501,-3.345009 z m 12.177709,-9.906976 c -0.744349,2.186286 0.0056,5.142164 1.324144,6.184466 0.104591,-0.419945 0.163627,-0.899318 0.163627,-1.451371 0,-1.262696 -0.481015,-3.101515 -1.48778,-4.732995 z M 16.933129,9.3311238 c -2.331056,0 -4.220715,1.8318332 -4.220715,4.0914982 0,2.259665 1.889659,4.091551 4.220715,4.091551 2.331056,0 4.220716,-1.831833 4.220716,-4.091551 0,-2.259665 -1.889709,-4.0914982 -4.220716,-4.0914982 z"
       color="#000000"
       color-rendering="auto"
       dominant-baseline="auto"
       fill="#ffffff"
       image-rendering="auto"
       shape-rendering="auto"
       solid-color="#000000"
       stop-color="#000000"
       style="font-variant-ligatures:normal;font-variant-position:normal;font-variant-caps:normal;font-variant-numeric:normal;font-variant-alternates:normal;font-variant-east-asian:normal;font-feature-settings:normal;font-variation-settings:normal;text-indent:0;text-decoration-line:none;text-decoration-style:solid;text-decoration-color:#000000;text-transform:none;text-orientation:mixed;white-space:normal;shape-padding:0;shape-margin:0;inline-size:0;isolation:auto;mix-blend-mode:normal;stroke-width:0.509932"
       id="path250" />
  </g>
</svg>
